<?xml version="1.0" encoding="UTF-8" standalone="no"?>
<!DOCTYPE svg PUBLIC "-//W3C//DTD SVG 1.1//EN"
 "http://www.w3.org/Graphics/SVG/1.1/DTD/svg11.dtd">
<!-- Generated by graphviz version 2.38.0 (20140413.2041)
 -->
<!-- Title: egraph Pages: 1 -->
<svg width="110pt" height="148pt"
 viewBox="0.00 0.00 110.00 148.00" xmlns="http://www.w3.org/2000/svg" xmlns:xlink="http://www.w3.org/1999/xlink">
<g id="graph0" class="graph" transform="scale(1 1) rotate(0) translate(4 144)">
<title>egraph</title>
<polygon fill="white" stroke="none" points="-4,4 -4,-144 106,-144 106,4 -4,4"/>
<g id="clust1" class="cluster"><title>cluster_0</title>
<polygon fill="none" stroke="black" stroke-dasharray="1,5" points="14,-8 14,-60 84,-60 84,-8 14,-8"/>
</g>
<g id="clust2" class="cluster"><title>cluster_1</title>
<polygon fill="none" stroke="black" stroke-dasharray="1,5" points="8,-80 8,-132 94,-132 94,-80 8,-80"/>
</g>
<!-- 0.0 -->
<g id="node1" class="node"><title>0.0</title>
<ellipse fill="none" stroke="black" cx="49" cy="-34" rx="27" ry="18"/>
<text text-anchor="middle" x="49" y="-30.3" font-family="Times,serif" font-size="14.00">0</text>
</g>
<!-- 1.0 -->
<g id="node2" class="node"><title>1.0</title>
<ellipse fill="none" stroke="black" cx="51" cy="-106" rx="35.194" ry="18"/>
<text text-anchor="middle" x="51" y="-102.3" font-family="Times,serif" font-size="14.00">input</text>
</g>
<!-- 1.0&#45;&gt;0.0 -->
<g id="edge1" class="edge"><title>1.0:sw&#45;&gt;0.0</title>
<path fill="none" stroke="black" d="M35,-89C29.7371,-83.7371 28.8956,-76.7677 30.2953,-69.5907"/>
<polygon fill="black" stroke="black" points="33.7083,-70.4058 33.3882,-59.8158 27.0344,-68.294 33.7083,-70.4058"/>
</g>
<!-- 1.0&#45;&gt;0.0 -->
<g id="edge2" class="edge"><title>1.0:se&#45;&gt;0.0</title>
<path fill="none" stroke="black" d="M67,-89C72.3273,-83.6727 72.8852,-76.7293 71.042,-69.6047"/>
<polygon fill="black" stroke="black" points="74.1564,-67.9573 67.2626,-59.912 67.6346,-70.5003 74.1564,-67.9573"/>
</g>
</g>
</svg>
